<svg width="300" height="300" viewBox="0 0 300 300" fill="none" xmlns="http://www.w3.org/2000/svg">
<path d="M17 30H282V270H17V30Z" fill="#DFDDC8" stroke="black" stroke-width="10"/>
<rect x="17" y="5" width="15" height="290" fill="#DFDDC8" stroke="black" stroke-width="10"/>
<rect x="5" y="15" width="40" height="270" fill="#DFDDC8" stroke="black" stroke-width="10"/>
<rect x="267" y="5" width="15" height="290" fill="#DFDDC8" stroke="black" stroke-width="10"/>
<rect x="255" y="15" width="40" height="270" fill="#DFDDC8" stroke="black" stroke-width="10"/>
<path d="M240 194.841L238.151 190.864L234.915 192.909L233.898 208.591L232.327 209.386L213.929 203.932L200.894 211.432L187.951 220.977L170.385 229.273L151.156 234.046L136.641 241.773L128.69 209.841L127.673 209.727L135.347 241.773L127.304 244.614L124.9 244.273L113.066 236.205L105.948 241.091L99.1989 238.705L82.8352 237.568L69.5224 238.477L71.9261 200.295H71.6488L69.1526 238.477L65.0848 238.818V239.273L69.5224 239.046L76.0864 238.477L82.8352 238.25L99.1989 239.386L105.948 241.773L113.066 237.114L124.9 245.523L127.581 247L137.103 243.364L151.341 235.068L170.385 230.523L187.951 223.023L200.894 214.614L213.929 208.364L232.697 213.818L237.319 211.091L238.336 195.864L240 194.841Z" fill="black" stroke="black"/>
<path d="M72.0185 215.636L60 220.182L65.0847 238.477L73.0354 235.636L85.886 237.795L115.008 226.432L144.777 219.614L167.612 229.614L187.673 220.409L205.701 199.273L218.459 203.477L238.151 190.864L236.672 187L218.182 198.25L204.037 192.455L186.656 212.455L166.872 220.977L145.239 211.432L113.621 213.364L86.5331 221.773L101.972 206.886L128.69 209.841L128.32 208.364L100.678 204.5L85.2388 219.386L73.3128 217.227L73.6826 200.75H72.5732L72.0185 215.636Z" fill="#C1A894" stroke="#C1A894"/>
<path d="M78.749 92.78V55.54C78.749 55.2133 81.409 54.07 86.729 52.11C92.049 50.1033 95.1057 49.1 95.899 49.1C96.6924 49.1 97.8824 50.0567 99.469 51.97C101.102 53.8833 101.919 55.61 101.919 57.15V96.49C101.919 96.8633 99.3524 98.0533 94.219 100.06C89.1324 102.02 86.0057 103 84.839 103C83.719 103 82.4124 101.997 80.919 99.99C79.4724 97.9833 78.749 95.58 78.749 92.78ZM90.719 96.56C91.6057 96.56 92.5157 96.1867 93.449 95.44V60.79C93.449 57.3367 92.259 55.61 89.879 55.61C88.9457 55.61 88.0357 55.96 87.149 56.66V91.38C87.149 94.8333 88.339 96.56 90.719 96.56ZM117.296 53.93V92.64C117.296 95.4867 118.252 97.0967 120.166 97.47V99.01L113.096 103C112.069 102.58 111.112 101.903 110.226 100.97C109.339 99.99 108.896 99.08 108.896 98.24V59.53C108.896 56.6833 107.939 55.0733 106.026 54.7V53.16L113.096 49.17C114.122 49.59 115.079 50.29 115.966 51.27C116.852 52.2033 117.296 53.09 117.296 53.93ZM137.436 49.1C138.696 49.1 140.68 52.1567 143.386 58.27C146.093 64.3833 147.446 68.6067 147.446 70.94V92.29C147.446 93.3633 147.726 94.4133 148.286 95.44C148.893 96.4667 149.733 97.05 150.806 97.19V98.73C150.48 98.7767 147.936 100.2 143.176 103C142.103 102.533 141.123 101.857 140.236 100.97C139.396 100.037 138.976 99.1733 138.976 98.38C133.983 101.46 131.066 103 130.226 103C129.9 103 129.27 102.65 128.336 101.95C127.45 101.203 126.54 100.153 125.606 98.8C124.72 97.4 124.276 95.9767 124.276 94.53V69.54C124.276 69.0733 128.22 67.4633 136.106 64.71C134.426 61.0233 133.073 58.4333 132.046 56.94C131.02 55.4467 130.016 54.7 129.036 54.7H126.726V52.6C131.906 50.2667 135.476 49.1 137.436 49.1ZM136.246 96.56C137.133 96.56 138.043 96.1867 138.976 95.44V71.08C138.976 70.8 138.766 70.2167 138.346 69.33C137.973 68.3967 137.693 67.93 137.506 67.93C136.153 67.93 134.776 68.35 133.376 69.19L132.676 69.61V91.38C132.676 94.8333 133.866 96.56 136.246 96.56ZM162.754 93.62C162.754 94.7867 163.081 95.7667 163.734 96.56C164.388 97.3533 165.088 97.75 165.834 97.75C166.581 97.75 167.654 97.4 169.054 96.7V62.05C169.054 60.3233 168.868 59.0867 168.494 58.34C168.168 57.5933 167.421 57.22 166.254 57.22V55.05L180.604 49.03L181.724 51.27C180.698 51.27 179.741 51.8767 178.854 53.09C177.968 54.2567 177.524 56.03 177.524 58.41V96.49C177.524 96.91 175.028 98.1 170.034 100.06C165.041 102.02 161.821 103 160.374 103C158.928 103 157.551 101.903 156.244 99.71C154.984 97.5167 154.354 95.58 154.354 93.9V59.39C154.354 56.8233 153.211 55.3067 150.924 54.84V53.3L158.554 49.03C159.581 49.45 160.538 50.15 161.424 51.13C162.311 52.0633 162.754 52.95 162.754 53.79V93.62ZM192.901 67.86V92.64C192.901 95.4867 193.858 97.0967 195.771 97.47V99.01L188.701 103C187.674 102.58 186.718 101.903 185.831 100.97C184.944 99.99 184.501 99.08 184.501 98.24V73.46C184.501 70.6133 183.544 69.0033 181.631 68.63V67.09L188.701 63.1C189.728 63.52 190.684 64.22 191.571 65.2C192.458 66.1333 192.901 67.02 192.901 67.86ZM183.451 54.35V50.08C183.451 49.94 184.408 49.52 186.321 48.82C188.281 48.0733 189.401 47.7 189.681 47.7C190.008 47.7 190.451 48.0967 191.011 48.89C191.618 49.6833 191.921 50.5 191.921 51.34V56.45C191.921 56.59 190.988 57.0333 189.121 57.78C187.254 58.48 186.111 58.83 185.691 58.83C185.271 58.83 184.781 58.4333 184.221 57.64C183.708 56.8 183.451 55.7033 183.451 54.35ZM203.102 87.67C201.935 87.67 200.932 86.7833 200.092 85.01C199.252 83.2367 198.832 81.0667 198.832 78.5V70.94C198.832 70.0533 201.282 68.5367 206.182 66.39C211.082 64.1967 213.905 63.1 214.652 63.1C215.072 63.1 215.445 63.3567 215.772 63.87C216.099 64.3367 216.355 64.7333 216.542 65.06C216.729 65.34 217.009 65.8533 217.382 66.6C217.802 67.3 218.152 67.8833 218.432 68.35C219.039 69.47 219.809 70.03 220.742 70.03V71.43C219.995 71.7567 219.015 72.2467 217.802 72.9C214.815 74.5333 213.205 75.35 212.972 75.35C212.272 75.35 211.502 74.2067 210.662 71.92C209.869 69.6333 209.145 68.49 208.492 68.49C207.652 68.49 207.232 69.19 207.232 70.59V79.2C207.232 81.0667 207.652 82 208.492 82C208.679 82 210.125 81.3933 212.832 80.18C215.539 78.9667 217.172 78.36 217.732 78.36C218.852 78.36 219.832 79.27 220.672 81.09C221.559 82.8633 222.002 85.15 222.002 87.95V95.86C222.002 96.7467 219.319 98.2867 213.952 100.48C208.632 102.627 205.575 103.7 204.782 103.7C204.455 103.7 204.129 103.42 203.802 102.86C203.522 102.253 203.102 101.343 202.542 100.13C202.029 98.9167 201.515 97.89 201.002 97.05C200.395 95.93 199.625 95.37 198.692 95.37V93.97C199.439 93.6433 200.442 93.1533 201.702 92.5C204.642 90.8667 206.229 90.05 206.462 90.05C207.162 90.05 208.025 91.4267 209.052 94.18C210.125 96.9333 210.989 98.31 211.642 98.31C212.109 98.31 212.552 98.1233 212.972 97.75C213.392 97.3767 213.602 96.8633 213.602 96.21V87.46C213.602 85.36 213.019 84.31 211.852 84.31C211.479 84.31 210.009 84.87 207.442 85.99C204.875 87.11 203.429 87.67 203.102 87.67Z" fill="black"/>
<path d="M78.0996 159.78V122.54C78.0996 122.213 80.7596 121.07 86.0796 119.11C91.3996 117.103 94.4563 116.1 95.2496 116.1C96.0429 116.1 97.2329 117.057 98.8196 118.97C100.453 120.883 101.27 122.61 101.27 124.15V163.49C101.27 163.863 98.7029 165.053 93.5696 167.06C88.4829 169.02 85.3563 170 84.1896 170C83.0696 170 81.7629 168.997 80.2696 166.99C78.8229 164.983 78.0996 162.58 78.0996 159.78ZM90.0696 163.56C90.9563 163.56 91.8663 163.187 92.7996 162.44V127.79C92.7996 124.337 91.6096 122.61 89.2296 122.61C88.2963 122.61 87.3863 122.96 86.4996 123.66V158.38C86.4996 161.833 87.6896 163.56 90.0696 163.56ZM108.246 165.24V141.51C108.246 139.97 107.919 138.64 107.266 137.52C106.613 136.4 105.796 135.84 104.816 135.84V134.3C105.143 134.253 107.686 132.83 112.446 130.03C112.773 130.123 113.169 130.263 113.636 130.45C114.103 130.59 114.709 131.033 115.456 131.78C116.249 132.527 116.646 133.39 116.646 134.37C116.926 134.23 117.719 133.787 119.026 133.04C122.479 131.08 124.533 130.1 125.186 130.1C126.679 130.1 128.079 131.08 129.386 133.04C130.693 135 131.346 136.797 131.346 138.43V159.64C131.346 162.207 132.489 163.723 134.776 164.19V165.73L127.146 170C126.119 169.58 125.163 168.903 124.276 167.97C123.389 166.99 122.946 166.08 122.946 165.24V144.94C122.946 142.327 122.643 140.343 122.036 138.99C121.476 137.59 120.449 136.89 118.956 136.89L116.646 137.31V159.64C116.646 162.487 117.603 164.097 119.516 164.47V166.01L112.446 170C111.419 169.58 110.463 168.903 109.576 167.97C108.689 166.99 108.246 166.08 108.246 165.24ZM146.724 120.93V159.64C146.724 162.487 147.681 164.097 149.594 164.47V166.01L142.524 170C141.498 169.58 140.541 168.903 139.654 167.97C138.768 166.99 138.324 166.08 138.324 165.24V126.53C138.324 123.683 137.368 122.073 135.454 121.7V120.16L142.524 116.17C143.551 116.59 144.508 117.29 145.394 118.27C146.281 119.203 146.724 120.09 146.724 120.93ZM162.105 134.86V159.64C162.105 162.487 163.062 164.097 164.975 164.47V166.01L157.905 170C156.878 169.58 155.922 168.903 155.035 167.97C154.148 166.99 153.705 166.08 153.705 165.24V140.46C153.705 137.613 152.748 136.003 150.835 135.63V134.09L157.905 130.1C158.932 130.52 159.888 131.22 160.775 132.2C161.662 133.133 162.105 134.02 162.105 134.86ZM152.655 121.35V117.08C152.655 116.94 153.612 116.52 155.525 115.82C157.485 115.073 158.605 114.7 158.885 114.7C159.212 114.7 159.655 115.097 160.215 115.89C160.822 116.683 161.125 117.5 161.125 118.34V123.45C161.125 123.59 160.192 124.033 158.325 124.78C156.458 125.48 155.315 125.83 154.895 125.83C154.475 125.83 153.985 125.433 153.425 124.64C152.912 123.8 152.655 122.703 152.655 121.35ZM169.086 165.24V141.51C169.086 139.97 168.759 138.64 168.106 137.52C167.453 136.4 166.636 135.84 165.656 135.84V134.3C165.983 134.253 168.526 132.83 173.286 130.03C173.613 130.123 174.009 130.263 174.476 130.45C174.943 130.59 175.549 131.033 176.296 131.78C177.089 132.527 177.486 133.39 177.486 134.37C177.766 134.23 178.559 133.787 179.866 133.04C183.319 131.08 185.373 130.1 186.026 130.1C187.519 130.1 188.919 131.08 190.226 133.04C191.533 135 192.186 136.797 192.186 138.43V159.64C192.186 162.207 193.329 163.723 195.616 164.19V165.73L187.986 170C186.959 169.58 186.003 168.903 185.116 167.97C184.229 166.99 183.786 166.08 183.786 165.24V144.94C183.786 142.327 183.483 140.343 182.876 138.99C182.316 137.59 181.289 136.89 179.796 136.89L177.486 137.31V159.64C177.486 162.487 178.443 164.097 180.356 164.47V166.01L173.286 170C172.259 169.58 171.303 168.903 170.416 167.97C169.529 166.99 169.086 166.08 169.086 165.24ZM216.314 130.1C216.547 130.1 217.131 130.473 218.064 131.22C218.997 131.92 219.931 132.923 220.864 134.23C221.797 135.49 222.264 136.727 222.264 137.94V149.7C222.264 150.54 221.027 151.567 218.554 152.78C216.081 153.993 213.677 154.997 211.344 155.79C209.057 156.537 207.821 156.91 207.634 156.91C207.634 160.503 209.197 162.72 212.324 163.56C213.864 163.933 215.707 164.12 217.854 164.12V166.15C210.201 168.717 206.117 170 205.604 170C204.204 170 202.781 169.02 201.334 167.06C199.887 165.053 199.164 162.72 199.164 160.06V136.54C199.164 136.213 201.824 135.07 207.144 133.11C212.464 131.103 215.521 130.1 216.314 130.1ZM213.864 141.23C213.864 139.923 213.561 138.827 212.954 137.94C212.347 137.007 211.577 136.54 210.644 136.54C209.711 136.54 208.684 136.89 207.564 137.59V153.76C211.764 152.593 213.864 150.073 213.864 146.2V141.23Z" fill="black"/>
</svg>
