<svg width="300" height="300" viewBox="0 0 300 300" fill="none" xmlns="http://www.w3.org/2000/svg">
<path d="M282 30V270H17V30H282Z" fill="#DFDDC8" stroke="black" stroke-width="10"/>
<rect x="17" y="5" width="15" height="290" fill="#DFDDC8" stroke="black" stroke-width="10"/>
<rect x="5" y="15" width="40" height="270" fill="#DFDDC8" stroke="black" stroke-width="10"/>
<rect x="267" y="5" width="15" height="290" fill="#DFDDC8" stroke="black" stroke-width="10"/>
<rect x="255" y="15" width="40" height="270" fill="#DFDDC8" stroke="black" stroke-width="10"/>
<path d="M240 194.841L238.151 190.864L234.915 192.909L233.898 208.591L232.327 209.386L213.929 203.932L200.894 211.432L187.951 220.977L170.385 229.273L151.156 234.045L136.641 241.773L128.69 209.841L127.673 209.727L135.347 241.773L127.304 244.614L124.9 244.273L113.066 236.205L105.948 241.091L99.1989 238.705L82.8352 237.568L69.5224 238.477L71.9261 200.295H71.6488L69.1526 238.477L65.0848 238.818V239.273L69.5224 239.045L76.0864 238.477L82.8352 238.25L99.1989 239.386L105.948 241.773L113.066 237.114L124.9 245.523L127.581 247L137.103 243.364L151.341 235.068L170.385 230.523L187.951 223.023L200.894 214.614L213.929 208.364L232.697 213.818L237.319 211.091L238.336 195.864L240 194.841Z" fill="black" stroke="black"/>
<path d="M72.0185 215.636L60 220.182L65.0847 238.477L73.0354 235.636L85.886 237.795L115.008 226.432L144.777 219.614L167.612 229.614L187.673 220.409L205.701 199.273L218.459 203.477L238.151 190.864L236.672 187L218.182 198.25L204.037 192.455L186.656 212.455L166.872 220.977L145.239 211.432L113.621 213.364L86.5331 221.773L101.972 206.886L128.69 209.841L128.32 208.364L100.678 204.5L85.2388 219.386L73.3128 217.227L73.6826 200.75H72.5732L72.0185 215.636Z" fill="#C1A894" stroke="#C1A894"/>
<path d="M78.749 92.78V55.54C78.749 55.2133 81.409 54.07 86.729 52.11C92.049 50.1033 95.1057 49.1 95.899 49.1C96.6924 49.1 97.8824 50.0567 99.469 51.97C101.102 53.8833 101.919 55.61 101.919 57.15V96.49C101.919 96.8633 99.3524 98.0533 94.219 100.06C89.1324 102.02 86.0057 103 84.839 103C83.719 103 82.4124 101.997 80.919 99.99C79.4724 97.9833 78.749 95.58 78.749 92.78ZM90.719 96.56C91.6057 96.56 92.5157 96.1867 93.449 95.44V60.79C93.449 57.3367 92.259 55.61 89.879 55.61C88.9457 55.61 88.0357 55.96 87.149 56.66V91.38C87.149 94.8333 88.339 96.56 90.719 96.56ZM117.296 53.93V92.64C117.296 95.4867 118.252 97.0967 120.166 97.47V99.01L113.096 103C112.069 102.58 111.112 101.903 110.226 100.97C109.339 99.99 108.896 99.08 108.896 98.24V59.53C108.896 56.6833 107.939 55.0733 106.026 54.7V53.16L113.096 49.17C114.122 49.59 115.079 50.29 115.966 51.27C116.852 52.2033 117.296 53.09 117.296 53.93ZM137.436 49.1C138.696 49.1 140.68 52.1567 143.386 58.27C146.093 64.3833 147.446 68.6067 147.446 70.94V92.29C147.446 93.3633 147.726 94.4133 148.286 95.44C148.893 96.4667 149.733 97.05 150.806 97.19V98.73C150.48 98.7767 147.936 100.2 143.176 103C142.103 102.533 141.123 101.857 140.236 100.97C139.396 100.037 138.976 99.1733 138.976 98.38C133.983 101.46 131.066 103 130.226 103C129.9 103 129.27 102.65 128.336 101.95C127.45 101.203 126.54 100.153 125.606 98.8C124.72 97.4 124.276 95.9767 124.276 94.53V69.54C124.276 69.0733 128.22 67.4633 136.106 64.71C134.426 61.0233 133.073 58.4333 132.046 56.94C131.02 55.4467 130.016 54.7 129.036 54.7H126.726V52.6C131.906 50.2667 135.476 49.1 137.436 49.1ZM136.246 96.56C137.133 96.56 138.043 96.1867 138.976 95.44V71.08C138.976 70.8 138.766 70.2167 138.346 69.33C137.973 68.3967 137.693 67.93 137.506 67.93C136.153 67.93 134.776 68.35 133.376 69.19L132.676 69.61V91.38C132.676 94.8333 133.866 96.56 136.246 96.56ZM162.754 93.62C162.754 94.7867 163.081 95.7667 163.734 96.56C164.388 97.3533 165.088 97.75 165.834 97.75C166.581 97.75 167.654 97.4 169.054 96.7V62.05C169.054 60.3233 168.868 59.0867 168.494 58.34C168.168 57.5933 167.421 57.22 166.254 57.22V55.05L180.604 49.03L181.724 51.27C180.698 51.27 179.741 51.8767 178.854 53.09C177.968 54.2567 177.524 56.03 177.524 58.41V96.49C177.524 96.91 175.028 98.1 170.034 100.06C165.041 102.02 161.821 103 160.374 103C158.928 103 157.551 101.903 156.244 99.71C154.984 97.5167 154.354 95.58 154.354 93.9V59.39C154.354 56.8233 153.211 55.3067 150.924 54.84V53.3L158.554 49.03C159.581 49.45 160.538 50.15 161.424 51.13C162.311 52.0633 162.754 52.95 162.754 53.79V93.62ZM192.901 67.86V92.64C192.901 95.4867 193.858 97.0967 195.771 97.47V99.01L188.701 103C187.674 102.58 186.718 101.903 185.831 100.97C184.944 99.99 184.501 99.08 184.501 98.24V73.46C184.501 70.6133 183.544 69.0033 181.631 68.63V67.09L188.701 63.1C189.728 63.52 190.684 64.22 191.571 65.2C192.458 66.1333 192.901 67.02 192.901 67.86ZM183.451 54.35V50.08C183.451 49.94 184.408 49.52 186.321 48.82C188.281 48.0733 189.401 47.7 189.681 47.7C190.008 47.7 190.451 48.0967 191.011 48.89C191.618 49.6833 191.921 50.5 191.921 51.34V56.45C191.921 56.59 190.988 57.0333 189.121 57.78C187.254 58.48 186.111 58.83 185.691 58.83C185.271 58.83 184.781 58.4333 184.221 57.64C183.708 56.8 183.451 55.7033 183.451 54.35ZM203.102 87.67C201.935 87.67 200.932 86.7833 200.092 85.01C199.252 83.2367 198.832 81.0667 198.832 78.5V70.94C198.832 70.0533 201.282 68.5367 206.182 66.39C211.082 64.1967 213.905 63.1 214.652 63.1C215.072 63.1 215.445 63.3567 215.772 63.87C216.099 64.3367 216.355 64.7333 216.542 65.06C216.729 65.34 217.009 65.8533 217.382 66.6C217.802 67.3 218.152 67.8833 218.432 68.35C219.039 69.47 219.809 70.03 220.742 70.03V71.43C219.995 71.7567 219.015 72.2467 217.802 72.9C214.815 74.5333 213.205 75.35 212.972 75.35C212.272 75.35 211.502 74.2067 210.662 71.92C209.869 69.6333 209.145 68.49 208.492 68.49C207.652 68.49 207.232 69.19 207.232 70.59V79.2C207.232 81.0667 207.652 82 208.492 82C208.679 82 210.125 81.3933 212.832 80.18C215.539 78.9667 217.172 78.36 217.732 78.36C218.852 78.36 219.832 79.27 220.672 81.09C221.559 82.8633 222.002 85.15 222.002 87.95V95.86C222.002 96.7467 219.319 98.2867 213.952 100.48C208.632 102.627 205.575 103.7 204.782 103.7C204.455 103.7 204.129 103.42 203.802 102.86C203.522 102.253 203.102 101.343 202.542 100.13C202.029 98.9167 201.515 97.89 201.002 97.05C200.395 95.93 199.625 95.37 198.692 95.37V93.97C199.439 93.6433 200.442 93.1533 201.702 92.5C204.642 90.8667 206.229 90.05 206.462 90.05C207.162 90.05 208.025 91.4267 209.052 94.18C210.125 96.9333 210.989 98.31 211.642 98.31C212.109 98.31 212.552 98.1233 212.972 97.75C213.392 97.3767 213.602 96.8633 213.602 96.21V87.46C213.602 85.36 213.019 84.31 211.852 84.31C211.479 84.31 210.009 84.87 207.442 85.99C204.875 87.11 203.429 87.67 203.102 87.67Z" fill="black"/>
<path d="M74.4 120.93C79.5333 117.803 82.4733 116.24 83.22 116.24C83.9667 116.24 85.1333 117.197 86.72 119.11C88.3533 121.023 89.17 122.75 89.17 124.29V146.06C89.17 146.387 87.3033 147.297 83.57 148.79C79.8833 150.283 76.8267 151.403 74.4 152.15V159.22C74.4 160.947 74.5867 162.183 74.96 162.93C75.3333 163.677 76.1033 164.05 77.27 164.05V166.22L62.92 172.24L61.8 170C62.8267 170 63.8067 169.393 64.74 168.18C65.58 167.013 66 165.24 66 162.86V126.6C66 123.753 65.0433 122.143 63.13 121.77V120.23L70.2 116.24C71.1333 116.613 72.0667 117.29 73 118.27C73.9333 119.25 74.4 120.137 74.4 120.93ZM77.13 122.96C76.29 122.96 75.38 123.31 74.4 124.01V148.86C75.6133 148.86 76.9667 148.487 78.46 147.74C79.9533 146.947 80.7 146.13 80.7 145.29V128.14C80.7 124.687 79.51 122.96 77.13 122.96ZM92.0329 134.3L99.7329 130.1C100.06 130.193 100.433 130.333 100.853 130.52C101.32 130.66 101.926 131.103 102.673 131.85C103.466 132.597 103.863 133.437 103.863 134.37C104.096 134.277 105.193 133.553 107.153 132.2C109.16 130.8 110.443 130.1 111.003 130.1C112.496 130.1 113.896 131.08 115.203 133.04C116.51 135 117.163 136.797 117.163 138.43V141.86L109.953 145.92L108.763 144.94C108.763 141.02 108.39 138.78 107.643 138.22C106.803 137.613 105.543 137.31 103.863 137.31V159.64C103.863 162.487 104.82 164.097 106.733 164.47V166.01L99.6629 170C98.6362 169.58 97.6796 168.903 96.7929 167.97C95.9062 166.99 95.4629 166.08 95.4629 165.24V142C95.4629 139.947 95.0896 138.407 94.3429 137.38C93.6429 136.353 92.8729 135.84 92.0329 135.84V134.3ZM122.055 159.78V136.54C122.055 136.213 124.715 135.07 130.035 133.11C135.355 131.103 138.411 130.1 139.205 130.1C139.998 130.1 141.188 131.057 142.775 132.97C144.408 134.883 145.225 136.61 145.225 138.15V163.49C145.225 163.863 142.658 165.053 137.525 167.06C132.438 169.02 129.311 170 128.145 170C127.025 170 125.718 168.997 124.225 166.99C122.778 164.983 122.055 162.58 122.055 159.78ZM134.025 163.56C134.911 163.56 135.821 163.187 136.755 162.44V141.79C136.755 138.337 135.565 136.61 133.185 136.61C132.251 136.61 131.341 136.96 130.455 137.66V158.38C130.455 161.833 131.645 163.56 134.025 163.56ZM152.201 162.09V140.46C152.201 137.613 151.245 136.003 149.331 135.63V134.09L156.401 130.1C157.428 130.52 158.385 131.22 159.271 132.2C160.158 133.133 160.601 134.02 160.601 134.86V162.58C160.601 166.22 160.391 169.603 159.971 172.73C159.551 175.903 159.038 178.33 158.431 180.01C157.825 181.737 157.195 182.6 156.541 182.6C155.375 182.6 153.858 182.25 151.991 181.55C150.171 180.85 148.631 180.15 147.371 179.45L145.481 178.4V176.3H147.861C149.495 176.3 150.615 175.227 151.221 173.08C151.875 170.933 152.201 167.27 152.201 162.09ZM151.151 122.89V118.62C151.151 118.48 152.108 118.06 154.021 117.36C155.981 116.613 157.101 116.24 157.381 116.24C157.708 116.24 158.151 116.637 158.711 117.43C159.318 118.223 159.621 119.04 159.621 119.88V124.99C159.621 125.13 158.688 125.573 156.821 126.32C154.955 127.02 153.811 127.37 153.391 127.37C152.971 127.37 152.481 126.973 151.921 126.18C151.408 125.34 151.151 124.243 151.151 122.89ZM184.732 130.1C184.965 130.1 185.549 130.473 186.482 131.22C187.415 131.92 188.349 132.923 189.282 134.23C190.215 135.49 190.682 136.727 190.682 137.94V149.7C190.682 150.54 189.445 151.567 186.972 152.78C184.499 153.993 182.095 154.997 179.762 155.79C177.475 156.537 176.239 156.91 176.052 156.91C176.052 160.503 177.615 162.72 180.742 163.56C182.282 163.933 184.125 164.12 186.272 164.12V166.15C178.619 168.717 174.535 170 174.022 170C172.622 170 171.199 169.02 169.752 167.06C168.305 165.053 167.582 162.72 167.582 160.06V136.54C167.582 136.213 170.242 135.07 175.562 133.11C180.882 131.103 183.939 130.1 184.732 130.1ZM182.282 141.23C182.282 139.923 181.979 138.827 181.372 137.94C180.765 137.007 179.995 136.54 179.062 136.54C178.129 136.54 177.102 136.89 175.982 137.59V153.76C180.182 152.593 182.282 150.073 182.282 146.2V141.23ZM206.978 136.89C206.512 136.89 206.092 137.123 205.718 137.59V156.91C205.718 160.503 207.258 162.72 210.338 163.56C211.925 163.933 213.815 164.12 216.008 164.12V166.15C208.355 168.717 204.272 170 203.758 170C202.358 170 200.935 169.02 199.488 167.06C198.042 165.053 197.318 162.72 197.318 160.06V136.54C197.318 136.213 199.978 135.07 205.298 133.11C210.665 131.103 213.745 130.1 214.538 130.1C214.818 130.1 215.145 130.777 215.518 132.13C215.892 133.483 216.312 135.117 216.778 137.03C217.292 138.943 217.805 140.367 218.318 141.3C218.878 142.187 219.905 142.63 221.398 142.63V144.03C220.372 144.497 218.622 145.337 216.148 146.55C213.722 147.717 212.415 148.3 212.228 148.3C211.528 148.3 210.642 146.41 209.568 142.63C208.495 138.803 207.632 136.89 206.978 136.89ZM234.019 122.82V131.15H237.589L236.889 134.58H234.019V159.64C234.019 162.487 234.976 164.097 236.889 164.47V166.01L229.819 170C228.792 169.58 227.836 168.903 226.949 167.97C226.062 166.99 225.619 166.08 225.619 165.24V134.65H222.749L223.449 131.71C224.849 131.71 226.529 130.777 228.489 128.91C230.496 126.997 231.686 124.967 232.059 122.82H234.019Z" fill="black"/>
</svg>
